<?xml version="1.0" standalone="no"?><!DOCTYPE svg PUBLIC "-//W3C//DTD SVG 1.1//EN" "http://www.w3.org/Graphics/SVG/1.1/DTD/svg11.dtd"><svg t="1525867598277" class="icon" style="" viewBox="0 0 1024 1024" version="1.1" xmlns="http://www.w3.org/2000/svg" p-id="829" xmlns:xlink="http://www.w3.org/1999/xlink" width="200" height="200"><defs><style type="text/css"></style></defs><path d="M512 1003.76381A491.76381 491.76381 0 1 1 1003.76381 512 492.495238 492.495238 0 0 1 512 1003.76381z m0-950.857143A459.093333 459.093333 0 1 0 971.093333 512 459.580952 459.580952 0 0 0 512 52.906667z" fill="#ffffff" p-id="830"></path><path d="M512 553.447619a166.521905 166.521905 0 1 1 166.521905-166.521905A166.765714 166.765714 0 0 1 512 553.447619z m0-300.373333a133.607619 133.607619 0 1 0 133.607619 133.607619A133.851429 133.851429 0 0 0 512 253.318095z" fill="#ffffff" p-id="831"></path><path d="M762.148571 828.952381a16.335238 16.335238 0 0 1-16.335238-16.335238c0-142.628571-104.838095-258.681905-233.813333-258.681905s-233.813333 116.053333-233.813333 258.681905a16.335238 16.335238 0 1 1-32.914286 0c0-160.914286 119.710476-292.571429 266.727619-292.571429s266.727619 130.925714 266.727619 292.571429a16.335238 16.335238 0 0 1-16.579048 16.335238z" fill="#ffffff" p-id="832"></path></svg>