<?xml version="1.0" standalone="no"?><!DOCTYPE svg PUBLIC "-//W3C//DTD SVG 1.1//EN" "http://www.w3.org/Graphics/SVG/1.1/DTD/svg11.dtd"><svg t="1525868607582" class="icon" style="" viewBox="0 0 1024 1024" version="1.1" xmlns="http://www.w3.org/2000/svg" p-id="1040" xmlns:xlink="http://www.w3.org/1999/xlink" width="200" height="200"><defs><style type="text/css"></style></defs><path d="M386.788 485.604v187.96c0 13.312 6.656 19.968 20.992 19.968h84.992c14.848 0 24.092-4.124 27.164-11.776 3.584-8.192 6.628-24.576 8.704-50.204l50.204 17.408c-4.124 45.056-10.752 72.22-19.484 81.408-8.704 8.192-25.6 12.316-50.204 12.316h-125.44c-33.792 0-50.688-16.384-50.688-49.18v-236.6l-20.992 20.991-31.26-42.98c48.127-44.06 92.188-95.772 132.664-156.188h38.912c45.596 47.104 88.092 96.285 128.028 146.46l-34.844 36.353c-43.52-58.397-79.36-102.94-108.06-132.665-25.6 37.916-54.272 74.78-87.069 109.625h177.721v142.876c-0.54 28.7-16.384 44.06-47.644 46.08-20.509 0-39.453-0.996-56.86-2.02l-13.313-49.692c18.944 2.048 35.328 3.072 48.669 3.072 11.264 0 16.896-5.632 16.896-15.9v-77.34h-89.088z m266.296-163.869V636.7H600.86V321.735h52.224zM613.69 745.813l-12.317-50.716c24.576 2.048 48.128 3.072 70.173 3.072 12.316 0 18.432-7.709 18.432-22.016V278.187h53.248v411.25c0 37.375-17.92 56.348-53.248 56.348h-76.288z" fill="#ffffff" p-id="1041"></path><path d="M512 1024C229.66 1024 0 794.34 0 512S229.66 0 512 0s512 229.66 512 512-229.66 512-512 512z m0-961.308C264.249 62.692 62.692 264.249 62.692 512S264.249 961.308 512 961.308 961.308 759.751 961.308 512 759.751 62.692 512 62.692z" fill="#ffffff" p-id="1042"></path></svg>