<?xml version="1.0" standalone="no"?><!DOCTYPE svg PUBLIC "-//W3C//DTD SVG 1.1//EN" "http://www.w3.org/Graphics/SVG/1.1/DTD/svg11.dtd"><svg t="1525762952468" class="icon" style="" viewBox="0 0 1024 1024" version="1.1" xmlns="http://www.w3.org/2000/svg" p-id="798" xmlns:xlink="http://www.w3.org/1999/xlink" width="200" height="200"><defs><style type="text/css"></style></defs><path d="M129.706667 972.8L98.986667 797.013333h826.026666L894.293333 972.8z" fill="#ffffff" p-id="799"></path><path d="M512 49.493333c-69.973333 0-128 56.32-128 128 0 69.973333 56.32 128 128 128 69.973333 0 128-56.32 128-128 0-69.973333-58.026667-128-128-128z m0 158.72c-17.066667 0-30.72-13.653333-30.72-30.72S494.933333 146.773333 512 146.773333s30.72 13.653333 30.72 30.72-13.653333 30.72-30.72 30.72zM684.373333 508.586667c-34.133333-3.413333-58.026667-1.706667-58.026666-1.706667v116.053333h63.146666c51.2 0 75.093333-102.4-5.12-114.346666zM351.573333 711.68l81.92-204.8h-165.546666z" fill="#ffffff" p-id="800"></path><path d="M401.066667 204.8l-25.6 5.12c1.706667 8.533333 5.12 17.066667 8.533333 25.6h1.706667l22.186666-10.24c-1.706667-6.826667-5.12-13.653333-6.826666-20.48zM428.373333 98.986667c6.826667-5.12 11.946667-10.24 17.066667-13.653334l-15.36-20.48-1.706667 1.706667v-1.706667c-6.826667 5.12-15.36 11.946667-20.48 18.773334l20.48 15.36zM404.48 136.533333c3.413333-6.826667 6.826667-13.653333 11.946667-18.773333l-20.48-13.653333v1.706666h-1.706667c-5.12 8.533333-8.533333 15.36-11.946667 23.893334l22.186667 6.826666zM397.653333 180.906667c1.706667-6.826667 1.706667-15.36 3.413334-22.186667L375.466667 155.306667h-1.706667c-1.706667 8.533333-1.706667 18.773333-1.706667 27.306666l25.6-1.706666z" fill="#ffffff" p-id="801"></path><path d="M1024 296.96L776.533333 443.733333 549.546667 199.68c3.413333-6.826667 5.12-13.653333 5.12-22.186667 0-11.946667-5.12-22.186667-11.946667-30.72-8.533333-8.533333-18.773333-11.946667-30.72-11.946666s-22.186667 5.12-30.72 11.946666c-8.533333 8.533333-11.946667 18.773333-11.946667 30.72 0 8.533333 1.706667 15.36 6.826667 22.186667L426.666667 252.586667c-1.706667-1.706667-3.413333-5.12-6.826667-8.533334l-20.48 13.653334c3.413333 3.413333 6.826667 8.533333 10.24 11.946666L247.466667 443.733333 0 296.96l66.56 384 23.893333-3.413333L34.133333 346.453333l218.453334 129.706667 240.64-259.413333c5.12 3.413333 11.946667 5.12 18.773333 5.12 6.826667 0 13.653333-1.706667 18.773333-5.12l49.493334 52.906666c-1.706667 0-1.706667 1.706667-3.413334 1.706667l13.653334 20.48v1.706667c1.706667-1.706667 3.413333-3.413333 5.12-3.413334l174.08 187.733334L989.866667 346.453333 914.773333 785.066667H83.626667L119.466667 986.453333h774.826666v-25.6H139.946667l-27.306667-151.893333h820.906667c30.72-170.666667 61.44-341.333333 90.453333-512z m-488.106667-110.933333c-1.706667 3.413333-3.413333 6.826667-6.826666 10.24-3.413333 3.413333-6.826667 5.12-11.946667 6.826666h-10.24c-5.12-1.706667-8.533333-3.413333-11.946667-6.826666-3.413333-3.413333-5.12-6.826667-6.826666-10.24 0-1.706667-1.706667-5.12-1.706667-6.826667 0-3.413333 0-6.826667 1.706667-8.533333 1.706667-3.413333 3.413333-6.826667 5.12-8.533334 1.706667-1.706667 5.12-3.413333 8.533333-5.12 3.413333-1.706667 6.826667-1.706667 10.24-1.706666 3.413333 0 8.533333 1.706667 11.946667 3.413333 1.706667 1.706667 5.12 3.413333 6.826666 5.12 1.706667 1.706667 3.413333 3.413333 3.413334 5.12 1.706667 3.413333 3.413333 8.533333 3.413333 11.946667 0-1.706667 0 1.706667-1.706667 5.12 0-1.706667 0-1.706667 0 0z" fill="#ffffff" p-id="802"></path><path d="M805.546667 896h25.6V921.6h-25.6zM855.04 896h25.6V921.6h-25.6zM629.76 254.293333c5.12-6.826667 8.533333-15.36 11.946667-23.893333h-1.706667l-23.893333-8.533333-10.24 20.48 1.706666 1.706666 22.186667 10.24zM624.64 153.6l25.6-3.413333c-1.706667-8.533333-5.12-17.066667-8.533333-25.6h-1.706667v-1.706667l-22.186667 10.24c3.413333 6.826667 5.12 13.653333 6.826667 20.48zM464.213333 73.386667c6.826667-1.706667 13.653333-5.12 22.186667-6.826667l-5.12-23.893333h-1.706667v-1.706667c-8.533333 1.706667-17.066667 5.12-25.6 8.533333l10.24 23.893334zM626.346667 175.786667c0 6.826667 0 15.36-1.706667 22.186666h1.706667v1.706667l23.893333 5.12c1.706667-8.533333 1.706667-17.066667 1.706667-27.306667h-1.706667v-1.706666h-23.893333zM756.053333 896h25.6V921.6h-25.6zM530.773333 64.853333l3.413334-23.893333c-8.533333-1.706667-18.773333-1.706667-27.306667-1.706667l1.706667 23.893334c6.826667 0 15.36 0 22.186666 1.706666zM556.373333 71.68c6.826667 3.413333 13.653333 6.826667 18.773334 10.24l13.653333-20.48c-1.706667-1.706667-1.706667-1.706667-3.413333-1.706667-5.12-5.12-11.946667-8.533333-18.773334-11.946666-1.706667 0-3.413333-1.706667-5.12-1.706667l-8.533333 23.893333s1.706667 1.706667 3.413333 1.706667zM628.053333 98.986667c-5.12-6.826667-10.24-13.653333-17.066666-20.48l-17.066667 17.066666c5.12 5.12 10.24 10.24 13.653333 17.066667l20.48-13.653333zM360.106667 896h25.6V921.6h-25.6zM211.626667 896h25.6V921.6h-25.6zM261.12 896h25.6V921.6h-25.6zM162.133333 896H187.733333V921.6H162.133333zM310.613333 896h25.6V921.6h-25.6zM467.626667 283.306667c-5.12-1.706667-10.24-5.12-15.36-8.533334l-13.653334 20.48c6.826667 3.413333 11.946667 6.826667 18.773334 10.24 1.706667 0 3.413333 1.706667 5.12 1.706667l8.533333-23.893333c-1.706667 1.706667-3.413333 0-3.413333 0zM542.72 314.026667c8.533333-1.706667 17.066667-5.12 25.6-8.533334l-10.24-22.186666v-1.706667c-6.826667 3.413333-13.653333 5.12-20.48 6.826667l5.12 25.6zM493.226667 290.133333l-3.413334 23.893334c8.533333 1.706667 18.773333 1.706667 27.306667 1.706666V290.133333c-10.24 1.706667-17.066667 1.706667-23.893333 0zM508.586667 896h25.6V921.6h-25.6zM558.08 896h25.6V921.6h-25.6zM607.573333 896h25.6V921.6h-25.6zM657.066667 896H682.666667V921.6h-25.6zM706.56 896h25.6V921.6h-25.6zM409.6 896h25.6V921.6H409.6zM459.093333 896h25.6V921.6h-25.6z" fill="#ffffff" p-id="803"></path><path d="M349.866667 728.746667c-1.706667 0-5.12 0-6.826667-1.706667-1.706667-1.706667-3.413333-3.413333-3.413333-5.12L257.706667 512c-1.706667-3.413333-1.706667-5.12 0-8.533333 1.706667-1.706667 3.413333-5.12 5.12-5.12 3.413333-1.706667 5.12-1.706667 8.533333 0 1.706667 1.706667 5.12 3.413333 5.12 6.826666l71.68 186.026667 71.68-186.026667c1.706667-3.413333 3.413333-5.12 5.12-6.826666 1.706667-1.706667 5.12-1.706667 8.533333 0s5.12 3.413333 6.826667 5.12c1.706667 1.706667 1.706667 5.12 0 8.533333L358.4 721.92c0 1.706667-1.706667 3.413333-3.413333 5.12-1.706667 1.706667-3.413333 1.706667-6.826667 1.706667h1.706667c1.706667 0 0 0 0 0z m327.68-92.16h-40.96v83.626666c0 3.413333-1.706667 5.12-3.413334 8.533334-1.706667 1.706667-5.12 3.413333-8.533333 3.413333s-5.12-1.706667-8.533333-3.413333c-1.706667-1.706667-3.413333-5.12-3.413334-8.533334v-93.866666h51.2c13.653333 0 25.6-5.12 34.133334-13.653334s13.653333-20.48 13.653333-34.133333-5.12-25.6-13.653333-34.133333-20.48-13.653333-34.133334-13.653334h-51.2c-3.413333 0-5.12-1.706667-8.533333-3.413333-1.706667-1.706667-3.413333-5.12-3.413333-8.533333s1.706667-5.12 3.413333-8.533334c1.706667-1.706667 5.12-3.413333 8.533333-3.413333h51.2c18.773333 0 35.84 8.533333 49.493334 20.48 11.946667 11.946667 20.48 30.72 20.48 49.493333 0 18.773333-8.533333 35.84-20.48 49.493334 1.706667 1.706667-17.066667 10.24-35.84 10.24z m-153.6 92.16c-3.413333 0-5.12-1.706667-8.533334-3.413334-1.706667-1.706667-3.413333-5.12-3.413333-8.533333V506.88c0-3.413333 1.706667-5.12 3.413333-8.533333 1.706667-1.706667 5.12-3.413333 8.533334-3.413334s5.12 1.706667 8.533333 3.413334c1.706667 1.706667 3.413333 5.12 3.413333 8.533333v211.626667c0 3.413333-1.706667 5.12-3.413333 8.533333-3.413333 1.706667-5.12 1.706667-8.533333 1.706667z" fill="#ffffff" p-id="804"></path></svg>