<?xml version="1.0" standalone="no"?><!DOCTYPE svg PUBLIC "-//W3C//DTD SVG 1.1//EN" "http://www.w3.org/Graphics/SVG/1.1/DTD/svg11.dtd"><svg t="1525761397768" class="icon" style="" viewBox="0 0 1024 1024" version="1.1" xmlns="http://www.w3.org/2000/svg" p-id="764" xmlns:xlink="http://www.w3.org/1999/xlink" width="200" height="200"><defs><style type="text/css"></style></defs><path d="M949.408 435.168L871.68 367.6v-87.452c0-17.253-13.962-31.233-31.211-31.233s-31.21 13.98-31.21 31.233v33.19L532.967 73.163l-0.049-0.039a31.01 31.01 0 0 0-6.487-4.34l-0.007-0.003c-0.422-0.211-0.849-0.41-1.279-0.6-0.046-0.02-0.092-0.043-0.139-0.064a32.152 32.152 0 0 0-1.154-0.473c-0.094-0.037-0.187-0.078-0.282-0.114-0.342-0.13-0.687-0.248-1.033-0.365-0.14-0.048-0.278-0.1-0.419-0.146-0.309-0.1-0.62-0.189-0.933-0.279-0.176-0.051-0.352-0.107-0.529-0.156-0.299-0.08-0.6-0.15-0.9-0.223-0.189-0.045-0.376-0.095-0.564-0.136-0.315-0.07-0.634-0.127-0.95-0.186-0.175-0.033-0.348-0.07-0.52-0.1-0.365-0.062-0.73-0.112-1.096-0.16-0.125-0.017-0.25-0.04-0.377-0.055a30.31 30.31 0 0 0-1.361-0.133c-0.037-0.003-0.075-0.008-0.112-0.01a31.19 31.19 0 0 0-14.536 2.407c-0.052 0.022-0.104 0.042-0.155 0.065-0.33 0.143-0.657 0.297-0.984 0.452-0.15 0.07-0.3 0.137-0.448 0.211-0.237 0.118-0.47 0.244-0.706 0.367-0.234 0.123-0.469 0.244-0.7 0.373-0.158 0.088-0.313 0.183-0.469 0.274-0.304 0.177-0.607 0.355-0.906 0.542-0.096 0.06-0.19 0.125-0.285 0.187-0.352 0.226-0.702 0.458-1.046 0.7-0.06 0.043-0.12 0.088-0.18 0.13-0.37 0.265-0.738 0.537-1.098 0.82-0.055 0.042-0.108 0.087-0.162 0.13-0.357 0.283-0.709 0.571-1.054 0.871l-0.065 0.053-286.475 249.024V290.56c0-17.254-13.962-31.234-31.211-31.234-17.25 0-31.211 13.98-31.211 31.234v83.29c0 0.844 0.043 1.677 0.108 2.504l-67.66 58.814c-13.02 11.316-14.398 31.041-3.08 44.054 6.176 7.107 14.853 10.747 23.587 10.747a31.09 31.09 0 0 0 20.477-7.666l395.958-344.191 395.958 344.19a31.078 31.078 0 0 0 20.476 7.667c8.724 0 17.407-3.64 23.578-10.747 11.327-13.014 9.944-32.738-3.08-44.054z" fill="" p-id="765"></path><path d="M845.634 484.672c-17.25 0-31.234 13.98-31.234 31.233V826.2c0 39.133-26.928 72.197-58.807 72.197H269.355c-31.88 0-58.808-33.064-58.808-72.197V515.906c0-17.254-13.985-31.233-31.233-31.233-17.249 0-31.233 13.98-31.233 31.233V826.2c0 74.251 54.405 134.665 121.275 134.665h486.237c66.87 0 121.275-60.414 121.275-134.665V515.906c0-17.254-13.986-31.234-31.234-31.234z" fill="" p-id="766"></path><path d="M390.587 405.784c-17.25 0-31.234 13.98-31.234 31.233v30.471c0 17.254 13.986 31.234 31.234 31.234 17.249 0 31.233-13.98 31.233-31.234v-30.47c0-17.254-13.984-31.234-31.233-31.234zM634.36 405.784c-17.248 0-31.233 13.98-31.233 31.233v30.471c0 17.254 13.986 31.234 31.234 31.234 17.249 0 31.233-13.98 31.233-31.234v-30.47c0.001-17.254-13.984-31.234-31.233-31.234zM589.27 546.845c-14.54-9.314-33.842-5.053-43.15 9.455-0.122 0.193-13.38 19.45-33.969 19.45-20.008 0-32.454-18.138-33.276-19.378-9.176-14.418-28.27-18.81-42.835-9.75-14.65 9.099-19.145 28.356-10.045 43.007 11.215 18.047 41.98 48.59 86.157 48.59 43.959 0 75.1-30.309 86.574-48.224 9.302-14.53 5.068-33.848-9.456-43.15z" fill="" p-id="767"></path></svg>