<?xml version="1.0" standalone="no"?><!DOCTYPE svg PUBLIC "-//W3C//DTD SVG 1.1//EN" "http://www.w3.org/Graphics/SVG/1.1/DTD/svg11.dtd"><svg t="1525868603787" class="icon" style="" viewBox="0 0 1024 1024" version="1.1" xmlns="http://www.w3.org/2000/svg" p-id="917" xmlns:xlink="http://www.w3.org/1999/xlink" width="200" height="200"><defs><style type="text/css"></style></defs><path d="M345.6 0H128C57.6 0 0 57.6 0 128v224C0 416 57.6 448 128 448h320V128c0-70.4-32-128-102.4-128zM384 384H128c-19.2 0-64-44.8-64-64V128c0-19.2 44.8-64 64-64h192c19.2 0 64 44.8 64 64v256z m512-384h-224C608 0 576 57.6 576 128v320h320c70.4 0 128-32 128-102.4V128c0-70.4-57.6-128-128-128z m64 320c0 19.2-44.8 64-64 64h-256V128c0-19.2 44.8-64 64-64h192c19.2 0 64 44.8 64 64v192zM0 678.4V896c0 70.4 57.6 128 128 128h217.6c70.4 0 102.4-57.6 102.4-128V576H128c-70.4 0-128 32-128 102.4zM384 896c0 19.2-44.8 64-64 64H128c-19.2 0-64-44.8-64-64v-192c0-19.2 38.4-64 64-64h256v256z m512-320H576v320c0 70.4 57.6 128 128 128h192c70.4 0 128-57.6 128-128v-224c0-64-57.6-96-128-96z m64 320c0 19.2-44.8 64-64 64h-192c-19.2 0-64-38.4-64-64v-256h256c19.2 0 64 44.8 64 64v192z" fill="#ffffff" p-id="918"></path></svg>