<?xml version="1.0" standalone="no"?><!DOCTYPE svg PUBLIC "-//W3C//DTD SVG 1.1//EN" "http://www.w3.org/Graphics/SVG/1.1/DTD/svg11.dtd"><svg t="1534228987954" class="icon" style="" viewBox="0 0 1025 1024" version="1.1" xmlns="http://www.w3.org/2000/svg" p-id="1037" xmlns:xlink="http://www.w3.org/1999/xlink" width="200.1953125" height="200"><defs><style type="text/css"></style></defs><path d="M512.528053 384.141197c-35.334768 0-63.962118 28.662936-63.962118 63.962118 0 35.371502 28.62735 63.997704 63.962118 63.997704s64.03329-28.62735 64.03329-63.997704C576.561343 412.804133 547.862821 384.141197 512.528053 384.141197zM256.572822 384.141197c-35.334768 0-63.962118 28.662936-63.962118 63.962118 0 35.371502 28.62735 63.997704 63.962118 63.997704s63.997704-28.62735 63.997704-63.997704C320.570527 412.804133 291.907591 384.141197 256.572822 384.141197zM512.528053 0.227292c-282.716028 0-511.873727 200.531497-511.873727 447.876022 0 141.412541 75.011049 267.326733 191.957526 349.404506l0 226.503659L416.854068 887.908165c31.02999 5.165734 62.95767 8.107906 95.673985 8.107906 282.716028 0 511.873727-200.531497 511.873727-447.912756C1024.401779 200.757641 795.244081 0.227292 512.528053 0.227292zM512.528053 832.089539c-37.343665 0-73.43263-4.377099-108.157842-11.766394l-150.596068 90.543837 2.008897-148.443679c-115.475965-69.379251-191.167743-184.173339-191.167743-314.284402 0-212.046492 200.567083-383.950639 447.912756-383.950639C759.944899 64.18941 960.404075 236.093557 960.404075 448.138901S759.944899 832.089539 512.528053 832.089539zM768.483283 384.141197c-35.371502 0-63.997704 28.662936-63.997704 63.962118 0 35.371502 28.62735 63.997704 63.997704 63.997704s63.997704-28.62735 63.997704-63.997704C832.480987 412.804133 803.853638 384.141197 768.483283 384.141197z" fill="#d81e06" p-id="1038"></path></svg>