<?xml version="1.0" standalone="no"?><!DOCTYPE svg PUBLIC "-//W3C//DTD SVG 1.1//EN" "http://www.w3.org/Graphics/SVG/1.1/DTD/svg11.dtd"><svg t="1534217425971" class="icon" style="" viewBox="0 0 1024 1024" version="1.1" xmlns="http://www.w3.org/2000/svg" p-id="1009" xmlns:xlink="http://www.w3.org/1999/xlink" width="200" height="200"><defs><style type="text/css"></style></defs><path d="M572.43698201 560.769215c0 31.93283399-27.327136 57.82708601-61.05107501 57.82708701-33.672764 0-60.94872601-25.84307799-60.948726-57.82708701V58.952924c0-31.881659 27.327136-57.82708601 60.948726-57.827087 33.672764 0 61.05107401 25.945427 61.05107501 57.827087v501.816291z" fill="#d81e06" p-id="1010"></path><path d="M0.255872 538.866567c0-173.071864 96.41259401-325.264568 240.622089-410.52114 28.145927-17.041079 65.861469-8.904348 83.67016499 18.21809099 17.808696 27.122439 9.21139399 62.73982999-19.24157899 79.62738701-109.922639 65.503248-182.94852599 180.645677-182.948526 312.57331299 0.511744 203.776512 174.197701 368.66046999 389.027886 369.12103901 214.881359-0.511744 388.51614199-165.39570201 388.925537-369.12103901 0-135.10045001-76.81279401-252.69924999-191.18760599-317.28135899-29.015892-16.273463-38.534333-51.83968-21.390904-79.371515 17.245777-27.48066 54.75662201-36.538531 83.77251299-20.265067 149.889855 84.02838601 251.16401801 239.29155399 251.164018 416.764418 0 267.693353-228.749625 484.826387-511.027686 484.826386C229.15902 1023.897651 0.255872 806.815792 0.255872 538.917741" fill="#d81e06" p-id="1011"></path></svg>