<?xml version="1.0" standalone="no"?><!DOCTYPE svg PUBLIC "-//W3C//DTD SVG 1.1//EN" "http://www.w3.org/Graphics/SVG/1.1/DTD/svg11.dtd"><svg t="1534217442220" class="icon" style="" viewBox="0 0 1024 1024" version="1.1" xmlns="http://www.w3.org/2000/svg" p-id="1134" xmlns:xlink="http://www.w3.org/1999/xlink" width="200" height="200"><defs><style type="text/css"></style></defs><path d="M819.83544748 1005.05152868c-76.29605827 0-138.30501683-62.00895857-138.30501683-138.30501685 0-8.98467097-7.36448439-16.20186565-16.34915534-16.20186565s-16.34915535 7.36448439-16.34915535 16.20186565c0 76.29605827-62.00895857 138.30501683-138.30501683 138.30501685s-138.45230653-62.15624825-138.45230654-138.45230654c0-8.98467097-7.36448439-16.20186565-16.34915533-16.20186565s-16.34915535 7.36448439-16.34915535 16.20186565c0 76.29605827-62.00895857 138.30501683-138.30501684 138.30501685S62.76645225 942.89528042 62.76645225 866.59922214c0-1.3256072 0.1472897-2.65121438 0.29457937-3.82953187-0.1472897-1.17831749-0.29457937-2.50392469-0.29457937-3.82953189V435.18772659c0-246.85751673 200.75584446-447.76065089 447.76065088-447.76065088s447.76065089 200.90313415 447.76065089 447.76065088v431.41149555c-0.1472897 76.29605827-62.15624825 138.45230653-138.45230654 138.45230654zM665.18127531 805.6212914c33.72933851 0 61.12522043 27.39588193 61.12522042 60.97793074 0 51.55139072 41.97756103 93.67624144 93.67624144 93.67624144 51.55139072 0 93.67624144-41.97756103 93.67624144-93.67624144V435.18772659c0-222.11284919-180.72444691-402.98458579-402.98458581-402.98458578S107.54251731 213.07487742 107.54251731 435.18772659v423.75243179c0 1.3256072-0.1472897 2.65121438-0.29457936 3.82953189 0.1472897 1.17831749 0.29457937 2.50392469 0.29457936 3.82953187 0 51.55139072 41.97756103 93.67624144 93.67624145 93.67624144s93.67624144-41.97756103 93.67624143-93.67624144c0-33.72933851 27.39588193-60.97793075 61.12522043-60.97793074s61.12522043 27.39588193 61.12522045 60.97793074c0 51.55139072 41.97756103 93.67624144 93.67624144 93.67624144s93.67624144-41.97756103 93.67624144-93.67624144c-0.44186907-33.58204881 26.95401286-60.97793075 60.68335136-60.97793074z" fill="#d81e06" p-id="1135"></path><path d="M342.61685903 485.11893077c-36.96971163 0-67.16409763-30.19438599-67.16409762-67.16409764s30.19438599-67.16409763 67.16409762-67.16409764 67.16409763 30.19438599 67.16409764 67.16409764-30.19438599 67.16409763-67.16409764 67.16409764z m0-89.55213018c-12.37233377 0-22.38803254 10.01569877-22.38803254 22.38803254 0 12.37233377 10.01569877 22.38803254 22.38803254 22.38803256 12.37233377 0 22.38803254-10.01569877 22.38803256-22.38803256 0-12.37233377-10.01569877-22.38803254-22.38803256-22.38803254z m335.82048817 89.55213018c-36.96971163 0-67.16409763-30.19438599-67.16409763-67.16409764s30.19438599-67.16409763 67.16409763-67.16409764 67.16409763 30.19438599 67.16409763 67.16409764-30.19438599 67.16409763-67.16409763 67.16409764z m0-89.55213018c-12.37233377 0-22.38803254 10.01569877-22.38803253 22.38803254 0 12.37233377 10.01569877 22.38803254 22.38803253 22.38803256 12.37233377 0 22.38803254-10.01569877 22.38803254-22.38803256 0-12.37233377-10.01569877-22.38803254-22.38803254-22.38803254z" fill="#d81e06" p-id="1136"></path></svg>